<?xml version="1.0" encoding="utf-8"?>
<svg xmlns="http://www.w3.org/2000/svg" xmlns:xlink="http://www.w3.org/1999/xlink" style="margin: auto; background: none; display: block; shape-rendering: auto;" width="203px" height="203px" viewBox="0 0 100 100" preserveAspectRatio="xMidYMid">
<g transform="translate(50 50)">
<g>
<animateTransform attributeName="transform" type="rotate" values="0;72" keyTimes="0;1" dur="0.37735849056603776s" repeatCount="indefinite"></animateTransform><path d="M21.301408404140794 -5.5 L29.301408404140794 -5.5 L29.301408404140794 5.5 L21.301408404140794 5.5 A22 22 0 0 1 11.813308040624179 18.559249799960238 L11.813308040624179 18.559249799960238 L14.285443995623758 26.167701930321467 L3.8238223163770706 29.56688886844589 L1.351686361377491 21.95843673808466 A22 22 0 0 1 -14.000382515462624 16.970247182075116 L-14.000382515462624 16.970247182075116 L-20.4725184704622 21.6725292004149 L-26.93815624567941 12.773342262290477 L-20.466020290679833 8.071060243950692 A22 22 0 0 1 -20.466020290679833 -8.071060243950686 L-20.466020290679833 -8.071060243950686 L-26.938156245679412 -12.77334226229047 L-20.472518470462205 -21.672529200414896 L-14.000382515462626 -16.970247182075113 A22 22 0 0 1 1.3516863613774808 -21.95843673808466 L1.3516863613774808 -21.95843673808466 L3.8238223163770595 -29.56688886844589 L14.285443995623758 -26.167701930321467 L11.813308040624179 -18.559249799960238 A22 22 0 0 1 21.30140840414079 -5.500000000000009 M0 -16A16 16 0 1 0 0 16 A16 16 0 1 0 0 -16" fill="#2196f3"></path></g></g>
<!-- [ldio] generated by https://loading.io/ --></svg>